<mxfile host="app.diagrams.net" modified="2023-06-14T22:37:02.085Z" agent="Mozilla/5.0 (Windows NT 10.0; Win64; x64) AppleWebKit/537.36 (KHTML, like Gecko) Chrome/114.0.0.0 Safari/537.36" version="21.3.8" etag="WemaevXsivqy7D7p2zFp" type="github">
  <diagram name="Page-1" id="nuE9NkLdTNWkJ6FNIzur">
    <mxGraphModel>
      <root>
        <mxCell id="0" />
        <mxCell id="1" parent="0" />
      </root>
    </mxGraphModel>
  </diagram>
</mxfile>
